<?xml version="1.0" encoding="UTF-8"?>
<svg width="240" height="240" viewBox="0 0 240 240" fill="none" xmlns="http://www.w3.org/2000/svg">
    <circle cx="120" cy="120" r="120" fill="#FFC107"/>
    <path d="M120 60C93.49 60 72 81.49 72 108C72 134.51 93.49 156 120 156C146.51 156 168 134.51 168 108C168 81.49 146.51 60 120 60ZM120 144C100.15 144 84 127.85 84 108C84 88.15 100.15 72 120 72C139.85 72 156 88.15 156 108C156 127.85 139.85 144 120 144Z" fill="#FFE082"/>
    <path d="M120 84C106.75 84 96 94.75 96 108C96 121.25 106.75 132 120 132C133.25 132 144 121.25 144 108C144 94.75 133.25 84 120 84ZM120 120C113.37 120 108 114.63 108 108C108 101.37 113.37 96 120 96C126.63 96 132 101.37 132 108C132 114.63 126.63 120 120 120Z" fill="#FFF9C4"/>
    <circle cx="120" cy="108" r="12" fill="#FFF176"/>
    <!-- Headphones -->
    <path d="M90 96C85.58 96 82 99.58 82 104V128C82 132.42 85.58 136 90 136H102V96H90Z" fill="#424242"/>
    <path d="M150 96C154.42 96 158 99.58 158 104V128C158 132.42 154.42 136 150 136H138V96H150Z" fill="#424242"/>
    <!-- Music Notes -->
    <circle cx="60" cy="80" r="4" fill="#4CAF50"/>
    <circle cx="180" cy="60" r="4" fill="#4CAF50"/>
    <circle cx="200" cy="100" r="4" fill="#4CAF50"/>
    <circle cx="40" cy="120" r="4" fill="#4CAF50"/>
</svg>
